<svg width="126" height="117" viewBox="0 0 126 117" fill="none" xmlns="http://www.w3.org/2000/svg">
<path d="M89.807 33.3354L90.9601 30.283C82.4519 13.8723 64.2889 3.77312 44.9234 6.41218C30.8293 8.33288 19.1547 16.5852 12.3755 27.9092L14.2323 31.1452C14.6427 31.657 14.0549 31.51 13.9435 31.5252L10.3336 31.7219C9.08412 34.3503 8.08544 37.1114 7.36203 39.9678L9.19013 40.8019C9.44344 40.9944 9.32741 41.0761 9.12423 41.1515L6.8612 42.1831C5.91353 46.9265 5.71976 51.9032 6.397 56.9644C9.67615 81.4768 32.2786 98.8165 56.8028 95.6243C66.4471 94.3691 74.9704 90.1522 81.5863 84.0119L79.9648 79.4121C79.8279 79.1321 79.7926 78.9814 80.1422 79.0473L85.3804 80.0354C93.3074 70.6441 97.3786 58.061 95.5884 44.9244C95.0098 40.6785 93.8559 36.6519 92.2177 32.9126L90.6341 33.5644C90.5792 33.5867 90.6341 33.5644 90.0979 33.7374C89.7684 33.8436 89.7301 33.5128 89.8083 33.3363L89.807 33.3354Z" fill="#DD6E00"/>
<path d="M89.3038 34.0568L90.9604 30.283C82.4521 13.8723 64.2891 3.77309 44.9236 6.41215C30.8295 8.33285 19.1549 16.5852 12.3757 27.9092L15.6938 31.9032C15.8922 32.1429 15.755 32.3944 15.4466 32.3558L10.334 31.723C9.0845 34.3514 8.08583 37.1125 7.36241 39.9689L9.75129 40.7856C9.95608 40.8553 9.95824 41.0378 9.75491 41.1121L6.86143 42.1831C5.90717 46.9614 5.71745 51.9762 6.41242 57.0759C9.76817 81.7004 32.4516 98.9428 57.0761 95.5871C66.6078 94.2881 75.0329 90.0926 81.5852 84.011L78.6485 77.9996C78.5116 77.7197 78.7053 77.5082 78.9962 77.6184L85.3795 80.0355C93.3066 70.6442 97.3777 58.0611 95.5875 44.9245C95.0089 40.6787 93.855 36.652 92.2168 32.9127L89.5423 34.282C89.3491 34.381 89.2174 34.2559 89.3039 34.0579L89.3038 34.0568Z" fill="url(#paint0_linear_2102_383)"/>
<g style="mix-blend-mode:overlay">
<path d="M55.4353 83.5485C73.4116 81.0987 85.9983 64.5402 83.5485 46.564C81.0988 28.5878 64.5403 16.0011 46.564 18.4508C28.5878 20.9005 16.0011 37.4591 18.4508 55.4353C20.9006 73.4115 37.4591 85.9982 55.4353 83.5485Z" fill="white"/>
</g>
<path d="M55.253 82.2109C72.4905 79.8618 84.5599 63.9838 82.2109 46.7463C79.8618 29.5088 63.9838 17.4393 46.7463 19.7884C29.5088 22.1375 17.4394 38.0155 19.7884 55.253C22.1375 72.4905 38.0155 84.5599 55.253 82.2109Z" fill="url(#paint1_linear_2102_383)"/>
<g style="mix-blend-mode:multiply" opacity="0.5">
<path d="M55.253 82.2109C72.4905 79.8618 84.5599 63.9838 82.2109 46.7463C79.8618 29.5088 63.9838 17.4393 46.7463 19.7884C29.5088 22.1375 17.4394 38.0155 19.7884 55.253C22.1375 72.4905 38.0155 84.5599 55.253 82.2109Z" fill="#B25900"/>
</g>
<g filter="url(#filter0_d_2102_383)">
<path d="M59.8615 52.4919C62.349 49.7664 63.1006 46.0341 62.1167 42.6212C60.4461 37.0947 55.2999 33.9153 50.4114 34.6689C47.2616 35.1674 44.084 35.4699 40.8894 35.5726C39.1443 35.631 37.7579 37.238 37.7993 39.25C37.922 43.9326 38.0436 48.6154 38.1662 53.2981C38.2709 57.2906 38.3745 61.2833 38.479 65.2747C38.5162 67.0805 40.2603 68.798 42.3698 68.9227C44.9366 69.0781 46.9322 67.2007 46.7264 65.0738C46.477 62.2773 46.2277 59.4819 45.9783 56.6853C48.3074 56.5133 50.6278 56.2527 52.9353 55.9053C54.9895 58.9486 57.165 61.9323 59.4584 64.8477C60.3694 65.9838 62.0066 66.4998 63.6154 66.108C64.1978 65.9662 64.7697 65.7054 65.2411 65.3483C67.108 63.9846 67.4512 61.6205 66.1154 60.1165C63.9368 57.6351 61.8518 55.091 59.8625 52.4907L59.8615 52.4919ZM52.555 49.2492C50.2151 49.6169 47.8625 49.891 45.499 50.0689C45.2836 47.6799 45.068 45.2897 44.8526 42.9007C47.0924 42.7317 49.3221 42.4722 51.5394 42.1212C53.4445 41.8207 55.2885 43.2214 55.5451 45.3209C55.7687 47.1536 54.384 48.9648 52.555 49.2492Z" fill="url(#paint2_linear_2102_383)"/>
<path d="M59.8615 52.4919C62.349 49.7664 63.1006 46.0341 62.1167 42.6212C60.4461 37.0947 55.2999 33.9153 50.4114 34.6689C47.2616 35.1674 44.084 35.4699 40.8894 35.5726C39.1443 35.631 37.7579 37.238 37.7993 39.25C37.922 43.9326 38.0436 48.6154 38.1662 53.2981C38.2709 57.2906 38.3745 61.2833 38.479 65.2747C38.5162 67.0805 40.2603 68.798 42.3698 68.9227C44.9366 69.0781 46.9322 67.2007 46.7264 65.0738C46.477 62.2773 46.2277 59.4819 45.9783 56.6853C48.3074 56.5133 50.6278 56.2527 52.9353 55.9053C54.9895 58.9486 57.165 61.9323 59.4584 64.8477C60.3694 65.9838 62.0066 66.4998 63.6154 66.108C64.1978 65.9662 64.7697 65.7054 65.2411 65.3483C67.108 63.9846 67.4512 61.6205 66.1154 60.1165C63.9368 57.6351 61.8518 55.091 59.8625 52.4907L59.8615 52.4919ZM52.555 49.2492C50.2151 49.6169 47.8625 49.891 45.499 50.0689C45.2836 47.6799 45.068 45.2897 44.8526 42.9007C47.0924 42.7317 49.3221 42.4722 51.5394 42.1212C53.4445 41.8207 55.2885 43.2214 55.5451 45.3209C55.7687 47.1536 54.384 48.9648 52.555 49.2492Z" fill="url(#paint3_linear_2102_383)"/>
</g>
<g style="mix-blend-mode:overlay">
<path d="M66.6215 59.6728C64.5908 57.3609 62.6111 54.9557 60.7314 52.5187C63.0302 49.7246 63.7915 45.9967 62.7612 42.4267C61.0576 36.7911 55.7066 33.1673 50.3035 34.0024C47.1928 34.4956 44.0173 34.7966 40.8645 34.8981C38.7171 34.9705 37.0732 36.8874 37.1216 39.2674L37.802 65.2886C37.8475 67.4805 39.9195 69.4541 42.3265 69.5962C43.8446 69.6879 45.2788 69.1564 46.2619 68.1391C47.1036 67.2671 47.5073 66.155 47.3971 65.0131L46.7089 57.3056C48.6774 57.1452 50.6574 56.9196 52.6114 56.6363C54.6057 59.5732 56.728 62.4744 58.9291 65.2706C59.9127 66.4979 61.5576 67.0958 63.2319 66.8676C63.4113 66.8431 63.5929 66.8093 63.772 66.7656C64.4579 66.5995 65.1047 66.2967 65.641 65.8921C66.7343 65.0914 67.4378 63.9215 67.5708 62.6817C67.6903 61.5675 67.3517 60.4987 66.6192 59.6731L66.6215 59.6728ZM54.8751 45.4031C55.0543 46.8683 53.9205 48.3547 52.4507 48.5834C50.3576 48.9129 48.2283 49.1678 46.1121 49.3438L45.5863 43.5194C47.6093 43.3505 49.6445 43.1049 51.6439 42.7881C52.3665 42.6749 53.0936 42.8619 53.6972 43.3167C54.3527 43.811 54.7716 44.5521 54.8751 45.4031Z" fill="white"/>
</g>
<path d="M59.8615 52.4919C62.349 49.7664 63.1006 46.0341 62.1167 42.6212C60.4461 37.0947 55.2999 33.9153 50.4114 34.6689C47.2616 35.1674 44.084 35.4699 40.8894 35.5726C39.1443 35.631 37.7579 37.238 37.7993 39.25C37.922 43.9326 38.0436 48.6154 38.1662 53.2981C38.2709 57.2906 38.3745 61.2833 38.479 65.2747C38.5162 67.0805 40.2603 68.798 42.3698 68.9227C44.9366 69.0781 46.9322 67.2007 46.7264 65.0738C46.477 62.2773 46.2277 59.4819 45.9783 56.6853C48.3074 56.5133 50.6278 56.2527 52.9353 55.9053C54.9895 58.9486 57.165 61.9323 59.4584 64.8477C60.3694 65.9838 62.0066 66.4998 63.6154 66.108C64.1978 65.9662 64.7697 65.7054 65.2411 65.3483C67.108 63.9846 67.4512 61.6205 66.1154 60.1165C63.9368 57.6351 61.8518 55.091 59.8625 52.4907L59.8615 52.4919ZM52.555 49.2492C50.2151 49.6169 47.8625 49.891 45.499 50.0689C45.2836 47.6799 45.068 45.2897 44.8526 42.9007C47.0924 42.7317 49.3221 42.4722 51.5394 42.1212C53.4445 41.8207 55.2885 43.2214 55.5451 45.3209C55.7687 47.1536 54.384 48.9648 52.555 49.2492Z" fill="url(#paint4_linear_2102_383)"/>
<path d="M59.8615 52.4919C62.349 49.7664 63.1006 46.0341 62.1167 42.6212C60.4461 37.0947 55.2999 33.9153 50.4114 34.6689C47.2616 35.1674 44.084 35.4699 40.8894 35.5726C39.1443 35.631 37.7579 37.238 37.7993 39.25C37.922 43.9326 38.0436 48.6154 38.1662 53.2981C38.2709 57.2906 38.3745 61.2833 38.479 65.2747C38.5162 67.0805 40.2603 68.798 42.3698 68.9227C44.9366 69.0781 46.9322 67.2007 46.7264 65.0738C46.477 62.2773 46.2277 59.4819 45.9783 56.6853C48.3074 56.5133 50.6278 56.2527 52.9353 55.9053C54.9895 58.9486 57.165 61.9323 59.4584 64.8477C60.3694 65.9838 62.0066 66.4998 63.6154 66.108C64.1978 65.9662 64.7697 65.7054 65.2411 65.3483C67.108 63.9846 67.4512 61.6205 66.1154 60.1165C63.9368 57.6351 61.8518 55.091 59.8625 52.4907L59.8615 52.4919ZM52.555 49.2492C50.2151 49.6169 47.8625 49.891 45.499 50.0689C45.2836 47.6799 45.068 45.2897 44.8526 42.9007C47.0924 42.7317 49.3221 42.4722 51.5394 42.1212C53.4445 41.8207 55.2885 43.2214 55.5451 45.3209C55.7687 47.1536 54.384 48.9648 52.555 49.2492Z" fill="white"/>
<path d="M63.0614 16.2026C64.9082 15.9509 66.2014 14.2497 65.9497 12.4028C65.698 10.5559 63.9968 9.26278 62.1499 9.51447C60.3031 9.76615 59.0099 11.4674 59.2616 13.3142C59.5133 15.1611 61.2145 16.4543 63.0614 16.2026Z" fill="white"/>
<path d="M70.6308 19.2585C72.1083 19.0571 73.1428 17.6961 72.9414 16.2186C72.7401 14.7411 71.3791 13.7066 69.9016 13.908C68.4241 14.1093 67.3896 15.4703 67.5909 16.9478C67.7923 18.4253 69.1533 19.4598 70.6308 19.2585Z" fill="white"/>
<path d="M42.7164 41.4558C43.9785 41.2838 44.8621 40.1213 44.6901 38.8593C44.5181 37.5973 43.3556 36.7136 42.0936 36.8856C40.8316 37.0576 39.9479 38.2201 40.1199 39.4821C40.2919 40.7441 41.4544 41.6278 42.7164 41.4558Z" fill="white"/>
<path d="M40.0865 44.6527C40.9176 44.5394 41.4995 43.7739 41.3863 42.9428C41.273 42.1117 40.5075 41.5298 39.6764 41.643C38.8453 41.7563 38.2634 42.5218 38.3766 43.3529C38.4899 44.184 39.2554 44.7659 40.0865 44.6527Z" fill="white"/>
<path d="M109.942 67.7768L111.176 65.9859C108.295 54.0039 98.1566 44.5618 85.2014 43.1713C75.7726 42.1593 66.8966 45.6321 60.6974 51.8761L61.3814 54.2675C61.5651 54.6644 61.2082 54.4752 61.1336 54.4672L58.7659 54.0169C57.5367 55.5181 56.4486 57.1452 55.5234 58.8781L56.5731 59.7104C56.7062 59.8755 56.6181 59.9098 56.4745 59.9261L54.8448 60.2317C53.4726 63.1499 52.5509 66.3397 52.1794 69.7236C50.3797 86.1122 62.2332 100.951 78.6156 102.808C85.0581 103.539 91.2488 102.174 96.513 99.2585L96.1996 96.0221C96.1558 95.819 96.157 95.7158 96.3727 95.8144L99.6047 97.292C106.238 92.4824 110.886 84.9902 111.829 76.2021C112.134 73.3616 112.031 70.571 111.569 67.889L110.44 68.0574C110.401 68.063 110.44 68.0574 110.065 68.0836C109.835 68.0996 109.863 67.8793 109.942 67.7777L109.942 67.7768Z" fill="#DD6E00"/>
<path d="M109.501 68.1632L111.176 65.9859C108.296 54.0039 98.1568 44.5618 85.2016 43.1713C75.7729 42.1593 66.8969 45.6321 60.6977 51.8761L62.206 54.9919C62.2961 55.1788 62.1671 55.3196 61.9737 55.2453L58.7661 54.0177C57.5369 55.5188 56.4488 57.146 55.5236 58.8789L56.939 59.7896C57.0604 59.8675 57.0326 59.986 56.8891 60.0015L54.8451 60.2317C53.463 63.1715 52.5379 66.3866 52.1717 69.7982C50.4036 86.2717 62.3251 101.06 78.7986 102.828C85.1751 103.513 91.299 102.145 96.5126 99.2577L95.5738 94.8974C95.53 94.6943 95.6892 94.5885 95.8598 94.7063L99.6043 97.2919C106.237 92.4824 110.885 84.9902 111.828 76.202C112.133 73.3616 112.031 70.571 111.569 67.8889L109.619 68.3472C109.478 68.3803 109.413 68.2783 109.5 68.164L109.501 68.1632Z" fill="url(#paint5_linear_2102_383)"/>
<g style="mix-blend-mode:overlay">
<path d="M79.6627 94.7744C91.6886 96.0652 102.484 87.3627 103.775 75.3368C105.065 63.311 96.3628 52.5157 84.337 51.225C72.3111 49.9342 61.5159 58.6367 60.2251 70.6626C58.9344 82.6884 67.6369 93.4837 79.6627 94.7744Z" fill="white"/>
</g>
<path d="M79.7588 93.8796C91.2904 95.1173 101.642 86.7724 102.88 75.2408C104.117 63.7091 95.7726 53.3575 84.2409 52.1198C72.7093 50.8821 62.3577 59.227 61.12 70.7586C59.8823 82.2902 68.2271 92.6418 79.7588 93.8796Z" fill="url(#paint6_linear_2102_383)"/>
<g style="mix-blend-mode:multiply" opacity="0.5">
<path d="M79.7588 93.8796C91.2904 95.1173 101.642 86.7724 102.88 75.2408C104.117 63.7091 95.7726 53.3575 84.2409 52.1198C72.7093 50.8821 62.3577 59.227 61.12 70.7586C59.8823 82.2902 68.2271 92.6418 79.7588 93.8796Z" fill="#B25900"/>
</g>
<g filter="url(#filter1_d_2102_383)">
<path d="M87.4963 75.3834C89.5422 74.0174 90.6259 71.7222 90.5351 69.356C90.3382 65.5121 87.5163 62.631 84.232 62.3366C82.1138 62.1553 80.0089 61.8426 77.925 61.3979C76.7863 61.1565 75.6319 61.9747 75.3368 63.2835C74.6669 66.3336 73.9964 69.3837 73.3265 72.4338C72.7555 75.0345 72.1837 77.635 71.6127 80.2349C71.3479 81.4096 72.2018 82.8002 73.5471 83.2184C75.1834 83.7297 76.7753 82.8339 76.9824 81.4245C77.2684 79.5747 77.5544 77.7257 77.8404 75.8759C79.3753 76.1372 80.9187 76.3399 82.4676 76.4842C83.3102 78.7825 84.2408 81.0616 85.2585 83.3153C85.6663 84.1963 86.6433 84.7922 87.7472 84.7961C88.1468 84.7975 88.5587 84.7202 88.9209 84.5645C90.3473 83.9806 90.9476 82.5055 90.3238 81.3184C89.3108 79.364 88.3685 77.3838 87.4971 75.3827L87.4963 75.3834ZM83.2865 72.1157C81.7134 71.9793 80.1469 71.7802 78.5889 71.5172C78.8317 69.9366 79.0746 68.3553 79.3174 66.7747C80.794 67.0237 82.2785 67.2124 83.7697 67.34C85.0507 67.4504 86.02 68.6519 85.8501 70.0518C85.7017 71.2737 84.5157 72.2243 83.2865 72.1157Z" fill="url(#paint7_linear_2102_383)"/>
<path d="M87.4963 75.3834C89.5422 74.0174 90.6259 71.7222 90.5351 69.356C90.3382 65.5121 87.5163 62.631 84.232 62.3366C82.1138 62.1553 80.0089 61.8426 77.925 61.3979C76.7863 61.1565 75.6319 61.9747 75.3368 63.2835C74.6669 66.3336 73.9964 69.3837 73.3265 72.4338C72.7555 75.0345 72.1837 77.635 71.6127 80.2349C71.3479 81.4096 72.2018 82.8002 73.5471 83.2184C75.1834 83.7297 76.7753 82.8339 76.9824 81.4245C77.2684 79.5747 77.5544 77.7257 77.8404 75.8759C79.3753 76.1372 80.9187 76.3399 82.4676 76.4842C83.3102 78.7825 84.2408 81.0616 85.2585 83.3153C85.6663 84.1963 86.6433 84.7922 87.7472 84.7961C88.1468 84.7975 88.5587 84.7202 88.9209 84.5645C90.3473 83.9806 90.9476 82.5055 90.3238 81.3184C89.3108 79.364 88.3685 77.3838 87.4971 75.3827L87.4963 75.3834ZM83.2865 72.1157C81.7134 71.9793 80.1469 71.7802 78.5889 71.5172C78.8317 69.9366 79.0746 68.3553 79.3174 66.7747C80.794 67.0237 82.2785 67.2124 83.7697 67.34C85.0507 67.4504 86.02 68.6519 85.8501 70.0518C85.7017 71.2737 84.5157 72.2243 83.2865 72.1157Z" fill="url(#paint8_linear_2102_383)"/>
</g>
<g style="mix-blend-mode:overlay">
<path d="M90.7223 81.1123C89.778 79.2912 88.8816 77.4178 88.055 75.5399C89.9898 74.0994 91.079 71.8086 90.9833 69.3333C90.7825 65.4135 87.8992 62.212 84.2689 61.888C82.1767 61.7095 80.0734 61.3962 78.0168 60.9575C76.6155 60.6607 75.2448 61.6383 74.8954 63.1863L71.1723 80.1356C70.8511 81.5615 71.8762 83.1703 73.4113 83.6473C74.3791 83.9496 75.3923 83.8351 76.1913 83.334C76.8756 82.9043 77.3148 82.2492 77.4262 81.4925L78.214 76.3943C79.5136 76.6054 80.8311 76.7763 82.1411 76.9055C82.9619 79.1253 83.8712 81.3425 84.8483 83.5043C85.2885 84.456 86.2574 85.1061 87.3774 85.2263C87.4975 85.2392 87.6204 85.2464 87.7433 85.2467C88.2138 85.2489 88.6808 85.1565 89.0927 84.9805C89.9283 84.6372 90.5708 83.9926 90.8553 83.2115C91.1109 82.5095 91.0627 81.7636 90.7208 81.1122L90.7223 81.1123ZM85.4034 69.9978C85.2849 70.9747 84.3133 71.7553 83.3255 71.6681C81.9182 71.5465 80.4994 71.3708 79.1016 71.1461L79.6933 67.2925C81.0295 67.5068 82.3859 67.6735 83.7306 67.7884C84.2164 67.8308 84.657 68.0682 84.9749 68.4591C85.32 68.8838 85.4726 69.4305 85.4034 69.9978Z" fill="white"/>
</g>
<path d="M87.4963 75.3834C89.5422 74.0174 90.6259 71.7222 90.5351 69.356C90.3382 65.5121 87.5163 62.631 84.232 62.3366C82.1138 62.1553 80.0089 61.8426 77.925 61.3979C76.7863 61.1565 75.6319 61.9747 75.3368 63.2835C74.6669 66.3336 73.9964 69.3837 73.3265 72.4338C72.7555 75.0345 72.1837 77.635 71.6127 80.2349C71.3479 81.4096 72.2018 82.8002 73.5471 83.2184C75.1834 83.7297 76.7753 82.8339 76.9824 81.4245C77.2684 79.5747 77.5544 77.7257 77.8404 75.8759C79.3753 76.1372 80.9187 76.3399 82.4676 76.4842C83.3102 78.7825 84.2408 81.0616 85.2585 83.3153C85.6663 84.1963 86.6433 84.7922 87.7472 84.7961C88.1468 84.7975 88.5587 84.7202 88.9209 84.5645C90.3473 83.9806 90.9476 82.5055 90.3238 81.3184C89.3108 79.364 88.3685 77.3838 87.4971 75.3827L87.4963 75.3834ZM83.2865 72.1157C81.7134 71.9793 80.1469 71.7802 78.5889 71.5172C78.8317 69.9366 79.0746 68.3553 79.3174 66.7747C80.794 67.0237 82.2785 67.2124 83.7697 67.34C85.0507 67.4504 86.02 68.6519 85.8501 70.0518C85.7017 71.2737 84.5157 72.2243 83.2865 72.1157Z" fill="url(#paint9_linear_2102_383)"/>
<path d="M87.4963 75.3834C89.5422 74.0174 90.6259 71.7222 90.5351 69.356C90.3382 65.5121 87.5163 62.631 84.232 62.3366C82.1138 62.1553 80.0089 61.8426 77.925 61.3979C76.7863 61.1565 75.6319 61.9747 75.3368 63.2835C74.6669 66.3336 73.9964 69.3837 73.3265 72.4338C72.7555 75.0345 72.1837 77.635 71.6127 80.2349C71.3479 81.4096 72.2018 82.8002 73.5471 83.2184C75.1834 83.7297 76.7753 82.8339 76.9824 81.4245C77.2684 79.5747 77.5544 77.7257 77.8404 75.8759C79.3753 76.1372 80.9187 76.3399 82.4676 76.4842C83.3102 78.7825 84.2408 81.0616 85.2585 83.3153C85.6663 84.1963 86.6433 84.7922 87.7472 84.7961C88.1468 84.7975 88.5587 84.7202 88.9209 84.5645C90.3473 83.9806 90.9476 82.5055 90.3238 81.3184C89.3108 79.364 88.3685 77.3838 87.4971 75.3827L87.4963 75.3834ZM83.2865 72.1157C81.7134 71.9793 80.1469 71.7802 78.5889 71.5172C78.8317 69.9366 79.0746 68.3553 79.3174 66.7747C80.794 67.0237 82.2785 67.2124 83.7697 67.34C85.0507 67.4504 86.02 68.6519 85.8501 70.0518C85.7017 71.2737 84.5157 72.2243 83.2865 72.1157Z" fill="white"/>
<path d="M95.3734 52.4095C96.609 52.5421 97.7181 51.648 97.8507 50.4125C97.9833 49.177 97.0892 48.0679 95.8537 47.9353C94.6181 47.8026 93.509 48.6967 93.3764 49.9323C93.2438 51.1678 94.1379 52.2769 95.3734 52.4095Z" fill="white"/>
<path d="M99.7833 55.5983C100.772 55.7044 101.659 54.9891 101.765 54.0007C101.871 53.0123 101.156 52.125 100.167 52.0189C99.1791 51.9128 98.2918 52.6281 98.1857 53.6165C98.0796 54.605 98.7949 55.4922 99.7833 55.5983Z" fill="white"/>
<path d="M78.1661 65.4978C79.0104 65.5884 79.7683 64.9774 79.8589 64.1332C79.9495 63.2889 79.3385 62.531 78.4943 62.4404C77.65 62.3498 76.8921 62.9607 76.8015 63.805C76.7108 64.6493 77.3218 65.4072 78.1661 65.4978Z" fill="white"/>
<path d="M75.9526 67.146C76.5086 67.2056 77.0076 66.8033 77.0673 66.2473C77.127 65.6913 76.7247 65.1922 76.1687 65.1325C75.6127 65.0729 75.1136 65.4752 75.0539 66.0312C74.9942 66.5872 75.3966 67.0863 75.9526 67.146Z" fill="white"/>
<defs>
<filter id="filter0_d_2102_383" x="7.79843" y="4.55919" width="89.1241" height="94.3725" filterUnits="userSpaceOnUse" color-interpolation-filters="sRGB">
<feFlood flood-opacity="0" result="BackgroundImageFix"/>
<feColorMatrix in="SourceAlpha" type="matrix" values="0 0 0 0 0 0 0 0 0 0 0 0 0 0 0 0 0 0 127 0" result="hardAlpha"/>
<feOffset/>
<feGaussianBlur stdDeviation="15"/>
<feColorMatrix type="matrix" values="0 0 0 0 0.647059 0 0 0 0 0.305882 0 0 0 0 0 0 0 0 0.8 0"/>
<feBlend mode="normal" in2="BackgroundImageFix" result="effect1_dropShadow_2102_383"/>
<feBlend mode="normal" in="SourceGraphic" in2="effect1_dropShadow_2102_383" result="shape"/>
</filter>
<filter id="filter1_d_2102_383" x="41.5646" y="31.3558" width="79.0047" height="83.4403" filterUnits="userSpaceOnUse" color-interpolation-filters="sRGB">
<feFlood flood-opacity="0" result="BackgroundImageFix"/>
<feColorMatrix in="SourceAlpha" type="matrix" values="0 0 0 0 0 0 0 0 0 0 0 0 0 0 0 0 0 0 127 0" result="hardAlpha"/>
<feOffset/>
<feGaussianBlur stdDeviation="15"/>
<feColorMatrix type="matrix" values="0 0 0 0 0.647059 0 0 0 0 0.305882 0 0 0 0 0 0 0 0 0.8 0"/>
<feBlend mode="normal" in2="BackgroundImageFix" result="effect1_dropShadow_2102_383"/>
<feBlend mode="normal" in="SourceGraphic" in2="effect1_dropShadow_2102_383" result="shape"/>
</filter>
<linearGradient id="paint0_linear_2102_383" x1="57.0761" y1="95.5871" x2="44.9236" y2="6.41215" gradientUnits="userSpaceOnUse">
<stop stop-color="#CA8A04"/>
<stop offset="0.37" stop-color="#F59E0B"/>
<stop offset="1" stop-color="#FCF046"/>
</linearGradient>
<linearGradient id="paint1_linear_2102_383" x1="55.253" y1="82.2109" x2="46.7463" y2="19.7884" gradientUnits="userSpaceOnUse">
<stop stop-color="#CA5D04"/>
<stop offset="0.5" stop-color="#F59E0B"/>
<stop offset="1" stop-color="#FCC237"/>
</linearGradient>
<linearGradient id="paint2_linear_2102_383" x1="53.2222" y1="67.5505" x2="48.717" y2="34.4911" gradientUnits="userSpaceOnUse">
<stop stop-color="#CA8004"/>
<stop offset="0.5" stop-color="#F59E0B"/>
<stop offset="1" stop-color="#FCF137"/>
</linearGradient>
<linearGradient id="paint3_linear_2102_383" x1="53.2222" y1="67.5505" x2="48.717" y2="34.4911" gradientUnits="userSpaceOnUse">
<stop stop-color="#CA8004"/>
<stop offset="0.5" stop-color="#F59E0B"/>
<stop offset="1" stop-color="#FCF137"/>
</linearGradient>
<linearGradient id="paint4_linear_2102_383" x1="53.2222" y1="67.5505" x2="48.717" y2="34.4911" gradientUnits="userSpaceOnUse">
<stop stop-color="#CA8004"/>
<stop offset="0.5" stop-color="#F59E0B"/>
<stop offset="1" stop-color="#FCF137"/>
</linearGradient>
<linearGradient id="paint5_linear_2102_383" x1="78.7986" y1="102.828" x2="85.2016" y2="43.1713" gradientUnits="userSpaceOnUse">
<stop stop-color="#CA8A04"/>
<stop offset="0.37" stop-color="#F59E0B"/>
<stop offset="1" stop-color="#FCF046"/>
</linearGradient>
<linearGradient id="paint6_linear_2102_383" x1="79.7588" y1="93.8796" x2="84.2409" y2="52.1198" gradientUnits="userSpaceOnUse">
<stop stop-color="#CA5D04"/>
<stop offset="0.5" stop-color="#F59E0B"/>
<stop offset="1" stop-color="#FCC237"/>
</linearGradient>
<linearGradient id="paint7_linear_2102_383" x1="80.7901" y1="84.0667" x2="83.1639" y2="61.9504" gradientUnits="userSpaceOnUse">
<stop stop-color="#CA8004"/>
<stop offset="0.5" stop-color="#F59E0B"/>
<stop offset="1" stop-color="#FCF137"/>
</linearGradient>
<linearGradient id="paint8_linear_2102_383" x1="80.7901" y1="84.0667" x2="83.1639" y2="61.9504" gradientUnits="userSpaceOnUse">
<stop stop-color="#CA8004"/>
<stop offset="0.5" stop-color="#F59E0B"/>
<stop offset="1" stop-color="#FCF137"/>
</linearGradient>
<linearGradient id="paint9_linear_2102_383" x1="80.7901" y1="84.0667" x2="83.1639" y2="61.9504" gradientUnits="userSpaceOnUse">
<stop stop-color="#CA8004"/>
<stop offset="0.5" stop-color="#F59E0B"/>
<stop offset="1" stop-color="#FCF137"/>
</linearGradient>
</defs>
</svg>
